<?xml version="1.0" standalone="no"?>
<!DOCTYPE svg PUBLIC "-//W3C//DTD SVG 20010904//EN"
 "http://www.w3.org/TR/2001/REC-SVG-20010904/DTD/svg10.dtd">
<svg version="1.0" xmlns="http://www.w3.org/2000/svg"
 width="517.000000pt" height="584.000000pt" viewBox="0 0 517.000000 584.000000"
 preserveAspectRatio="xMidYMid meet">

<g transform="translate(0.000000,584.000000) scale(0.100000,-0.100000)"
fill="#000000" stroke="none">
<path d="M2395 5735 c-95 -18 -265 -75 -355 -120 -161 -81 -371 -269 -475
-425 -98 -147 -173 -342 -206 -528 -50 -297 6 -637 147 -887 109 -192 124
-223 130 -266 5 -36 1 -51 -18 -79 -25 -37 -34 -42 -249 -143 -75 -36 -216
-116 -318 -182 -101 -64 -212 -130 -248 -146 -157 -72 -297 -76 -495 -15 -65
20 -127 36 -139 36 -11 0 -36 -15 -53 -32 -31 -31 -33 -39 -39 -123 -20 -267
69 -670 207 -943 273 -539 762 -932 1340 -1078 145 -36 156 -40 156 -62 0 -35
-26 -78 -65 -108 -51 -39 -75 -83 -75 -140 0 -90 44 -134 211 -213 214 -100
376 -152 479 -153 57 0 74 4 143 41 l78 41 167 0 c92 0 184 5 204 10 42 12 93
65 102 108 l7 29 187 11 c103 6 204 16 225 22 55 16 102 62 117 115 41 148
-65 218 -460 303 -80 18 -167 36 -195 40 l-50 9 30 12 c154 63 301 143 414
226 83 61 241 214 298 288 32 41 51 57 63 54 10 -2 80 0 156 4 262 17 453 62
619 144 290 144 435 380 435 710 0 140 -10 209 -45 320 l-26 81 52 169 c44
143 52 183 53 252 1 75 -1 84 -29 125 -21 29 -51 53 -95 76 -46 24 -64 39 -62
50 2 10 30 105 62 212 193 648 240 810 240 836 0 48 -35 93 -93 118 -90 40
-395 136 -431 136 -45 0 -79 -13 -106 -42 -18 -19 -132 -349 -155 -450 l-7
-26 -34 20 c-22 13 -74 25 -142 34 -59 8 -120 20 -137 26 -40 15 -83 55 -106
100 -17 33 -18 44 -8 85 17 71 14 265 -5 363 -89 472 -412 809 -896 936 -122
33 -379 42 -505 19z m406 -160 c227 -39 414 -137 575 -299 147 -149 235 -315
269 -513 15 -85 20 -268 9 -310 l-6 -21 -45 20 c-60 27 -149 22 -218 -12 -56
-27 -157 -123 -227 -217 -35 -46 -62 -70 -110 -95 -74 -39 -108 -83 -108 -140
0 -110 114 -193 357 -259 43 -12 79 -23 81 -24 2 -2 -17 -12 -42 -24 -64 -28
-173 -107 -179 -130 -4 -15 9 -28 57 -57 77 -47 290 -261 334 -335 l32 -55
-49 -170 c-27 -93 -73 -243 -102 -334 -64 -203 -69 -265 -26 -352 45 -92 117
-145 270 -199 l68 -24 -6 -35 c-21 -112 -100 -289 -191 -426 -74 -113 -227
-270 -353 -365 -119 -89 -317 -193 -456 -238 -214 -70 -469 -100 -696 -82
-641 52 -1171 354 -1502 856 -194 294 -327 702 -327 1003 0 82 0 83 23 76 238
-77 391 -81 572 -17 84 30 128 54 345 188 91 56 252 146 357 199 210 106 250
138 273 222 27 95 1 185 -108 366 -219 368 -249 754 -88 1135 147 346 450 595
812 667 93 19 302 19 405 1z m1886 -1116 c115 -36 173 -59 173 -68 0 -14 -269
-912 -289 -964 -6 -15 -16 -27 -22 -27 -16 0 -352 112 -362 120 -5 4 19 92 52
196 33 104 104 328 157 497 57 179 102 306 108 304 6 -2 89 -28 183 -58z
m-1099 -106 c19 -9 49 -40 71 -72 86 -126 177 -182 336 -206 54 -8 103 -19
107 -23 15 -15 -16 -75 -53 -107 -152 -128 -514 -162 -796 -75 -115 35 -193
85 -193 122 0 11 20 32 48 51 54 36 135 115 205 199 57 68 103 105 154 124 41
15 69 12 121 -13z m500 -635 c-44 -131 -50 -143 -70 -140 -13 1 -56 2 -95 3
-142 0 -221 -74 -266 -250 l-14 -54 -22 36 c-23 37 -111 123 -194 188 l-48 38
49 25 c26 13 70 44 98 69 l50 45 114 12 c128 14 264 49 325 85 30 17 117 79
120 84 1 1 -21 -63 -47 -141z m94 -357 c550 -186 578 -198 578 -250 0 -15 -78
-301 -84 -308 -1 -2 -27 7 -57 18 -69 26 -183 36 -235 19 -97 -31 -161 -105
-173 -203 -3 -29 -9 -51 -14 -49 -13 4 -81 -28 -105 -51 -72 -67 -89 -207 -43
-365 13 -45 22 -85 19 -87 -8 -9 -412 120 -459 146 -55 30 -89 87 -89 150 0
26 21 113 50 210 257 836 250 817 287 838 38 22 99 9 325 -68z m376 -666 c64
-19 112 -73 143 -159 31 -87 38 -266 14 -373 -75 -340 -301 -506 -773 -567
-115 -15 -202 -20 -202 -13 0 2 17 44 39 93 38 89 70 181 91 262 6 24 15 40
21 36 22 -13 295 -94 320 -94 61 0 63 43 8 217 -30 95 -42 151 -46 218 -5 88
-5 92 22 123 50 59 66 51 209 -113 98 -112 132 -145 151 -145 57 0 45 26 -104
224 -95 126 -111 152 -111 184 0 45 23 75 75 101 49 25 76 26 143 6z m-1824
-1920 c45 -34 88 -48 354 -115 223 -56 322 -91 330 -117 8 -27 -46 -37 -257
-44 l-215 -8 -195 83 c-108 46 -226 95 -263 110 -36 15 -74 34 -85 41 -17 13
-17 14 7 18 14 3 81 16 150 30 69 13 129 25 133 26 5 0 23 -10 41 -24z m-604
-85 c47 -50 104 -77 295 -140 193 -64 379 -141 420 -175 46 -38 22 -45 -166
-45 -183 0 -212 -6 -278 -56 -24 -19 -48 -34 -52 -34 -18 0 -156 47 -267 91
-146 58 -259 113 -289 141 l-22 21 51 46 c55 50 72 81 83 154 l7 48 92 -7 c89
-7 92 -8 126 -44z"/>
<path d="M2581 4632 c-19 -9 -48 -34 -65 -55 -26 -32 -30 -47 -31 -95 0 -112
77 -196 178 -196 157 0 245 185 144 301 -17 20 -46 42 -64 49 -45 19 -121 17
-162 -4z m153 -114 c14 -23 -3 -52 -32 -56 -29 -5 -60 42 -42 64 17 19 60 14
74 -8z"/>
<path d="M2565 2860 c-4 -6 24 -41 67 -83 117 -115 159 -216 159 -387 0 -115
-18 -188 -73 -298 -113 -227 -360 -388 -660 -432 -283 -42 -638 46 -774 192
l-49 53 79 12 c43 7 83 16 89 22 17 17 -1 41 -30 41 -45 0 -169 38 -235 71
-99 50 -187 143 -212 225 -6 20 -2 21 103 28 179 10 301 51 441 146 56 38 130
112 130 129 0 24 -25 20 -76 -14 -82 -54 -201 -111 -274 -131 -42 -11 -123
-19 -230 -23 -176 -6 -205 -14 -231 -62 -17 -32 -6 -100 27 -166 36 -75 150
-188 232 -231 46 -25 62 -39 62 -54 0 -73 107 -189 236 -255 250 -130 590
-165 872 -92 472 124 772 531 687 934 -21 99 -76 206 -140 270 -80 79 -182
134 -200 105z"/>
<path d="M3460 4130 c-26 -26 -25 -42 4 -69 16 -15 33 -21 52 -19 24 2 30 8
32 34 2 25 -3 37 -24 53 -33 26 -39 26 -64 1z"/>
</g>
</svg>
